<svg xmlns="http://www.w3.org/2000/svg" viewBox="0 0 100 100" width="100" height="100">
  <!-- Background -->
  <circle cx="50" cy="50" r="48" fill="#e8f5e9"/>
  
  <!-- Sun -->
  <circle cx="50" cy="35" r="12" fill="#ffcc00"/>
  <g stroke="#ffcc00" stroke-width="2" stroke-linecap="round">
    <line x1="50" y1="18" x2="50" y2="12"/>
    <line x1="50" y1="52" x2="50" y2="58"/>
    <line x1="33" y1="35" x2="27" y2="35"/>
    <line x1="67" y1="35" x2="73" y2="35"/>
  </g>
  
  <!-- Battery -->
  <rect x="35" y="55" width="30" height="18" rx="2" fill="#2c5f2d"/>
  <rect x="38" y="58" width="24" height="12" rx="1" fill="#4caf50"/>
  
  <!-- Zero / Balance -->
  <path d="M 30 78 Q 30 88 40 88 Q 50 88 50 78 Q 50 68 40 68 Q 30 68 30 78" 
        fill="none" stroke="#1976d2" stroke-width="3" stroke-linecap="round"/>
  <path d="M 70 78 Q 70 88 60 88 Q 50 88 50 78 Q 50 68 60 68 Q 70 68 70 78" 
        fill="none" stroke="#1976d2" stroke-width="3" stroke-linecap="round"/>
</svg>
